<svg width="24" height="25" viewBox="0 0 24 25" fill="none" xmlns="http://www.w3.org/2000/svg">
<g clip-path="url(#clip0_8_186)">
<path d="M0 3.34375C0 3.13655 0.0790176 2.93784 0.21967 2.79132C0.360322 2.64481 0.551088 2.5625 0.75 2.5625H3C3.1673 2.56255 3.32978 2.62086 3.4616 2.72816C3.59342 2.83547 3.68701 2.9856 3.7275 3.15469L4.335 5.6875H21.75C21.8601 5.68761 21.9689 5.71297 22.0685 5.7618C22.1682 5.81062 22.2563 5.88171 22.3266 5.97001C22.3969 6.0583 22.4477 6.16164 22.4753 6.27268C22.5029 6.38373 22.5068 6.49975 22.4865 6.6125L20.2365 19.1125C20.2043 19.2915 20.1131 19.4532 19.9786 19.5696C19.8442 19.686 19.6749 19.7498 19.5 19.75H6C5.82515 19.7498 5.65585 19.686 5.52137 19.5696C5.38688 19.4532 5.29567 19.2915 5.2635 19.1125L3.015 6.63594L2.415 4.125H0.75C0.551088 4.125 0.360322 4.04269 0.21967 3.89618C0.0790176 3.74966 0 3.55095 0 3.34375ZM4.653 7.25L6.6225 18.1875H18.8775L20.847 7.25H4.653ZM7.5 19.75C6.70435 19.75 5.94129 20.0792 5.37868 20.6653C4.81607 21.2513 4.5 22.0462 4.5 22.875C4.5 23.7038 4.81607 24.4987 5.37868 25.0847C5.94129 25.6708 6.70435 26 7.5 26C8.29565 26 9.05871 25.6708 9.62132 25.0847C10.1839 24.4987 10.5 23.7038 10.5 22.875C10.5 22.0462 10.1839 21.2513 9.62132 20.6653C9.05871 20.0792 8.29565 19.75 7.5 19.75ZM18 19.75C17.2044 19.75 16.4413 20.0792 15.8787 20.6653C15.3161 21.2513 15 22.0462 15 22.875C15 23.7038 15.3161 24.4987 15.8787 25.0847C16.4413 25.6708 17.2044 26 18 26C18.7957 26 19.5587 25.6708 20.1213 25.0847C20.6839 24.4987 21 23.7038 21 22.875C21 22.0462 20.6839 21.2513 20.1213 20.6653C19.5587 20.0792 18.7957 19.75 18 19.75ZM7.5 21.3125C7.89783 21.3125 8.27936 21.4771 8.56066 21.7701C8.84196 22.0632 9 22.4606 9 22.875C9 23.2894 8.84196 23.6868 8.56066 23.9799C8.27936 24.2729 7.89783 24.4375 7.5 24.4375C7.10218 24.4375 6.72065 24.2729 6.43934 23.9799C6.15804 23.6868 6 23.2894 6 22.875C6 22.4606 6.15804 22.0632 6.43934 21.7701C6.72065 21.4771 7.10218 21.3125 7.5 21.3125ZM18 21.3125C18.3978 21.3125 18.7794 21.4771 19.0607 21.7701C19.342 22.0632 19.5 22.4606 19.5 22.875C19.5 23.2894 19.342 23.6868 19.0607 23.9799C18.7794 24.2729 18.3978 24.4375 18 24.4375C17.6022 24.4375 17.2206 24.2729 16.9393 23.9799C16.658 23.6868 16.5 23.2894 16.5 22.875C16.5 22.4606 16.658 22.0632 16.9393 21.7701C17.2206 21.4771 17.6022 21.3125 18 21.3125Z" fill="#777777"/>
</g>
<defs>
<clipPath id="clip0_8_186">
<rect width="24" height="25" fill="white"/>
</clipPath>
</defs>
</svg>
