<svg width="32" height="31" viewBox="0 0 32 31" fill="none" xmlns="http://www.w3.org/2000/svg">
<path d="M16 1C13.2311 1 10.5243 1.82109 8.22202 3.35943C5.91973 4.89777 4.12532 7.08427 3.06569 9.64243C2.00607 12.2006 1.72882 15.0155 2.26901 17.7313C2.80921 20.447 4.14258 22.9416 6.10051 24.8995C8.05845 26.8574 10.553 28.1908 13.2687 28.731C15.9845 29.2712 18.7994 28.9939 21.3576 27.9343C23.9157 26.8747 26.1022 25.0803 27.6406 22.778C29.1789 20.4757 30 17.7689 30 15C30 11.287 28.525 7.72601 25.8995 5.1005C23.274 2.475 19.713 1 16 1ZM16 27C13.6266 27 11.3066 26.2962 9.33316 24.9776C7.35977 23.6591 5.8217 21.7849 4.91345 19.5922C4.0052 17.3995 3.76756 14.9867 4.23058 12.6589C4.69361 10.3311 5.83649 8.19295 7.51472 6.51472C9.19296 4.83649 11.3312 3.6936 13.6589 3.23058C15.9867 2.76755 18.3995 3.00519 20.5922 3.91345C22.7849 4.8217 24.6591 6.35977 25.9776 8.33316C27.2962 10.3065 28 12.6266 28 15C28 18.1826 26.7357 21.2348 24.4853 23.4853C22.2348 25.7357 19.1826 27 16 27Z" fill="#777777"/>
<path d="M16 24C16.8284 24 17.5 23.3284 17.5 22.5C17.5 21.6716 16.8284 21 16 21C15.1716 21 14.5 21.6716 14.5 22.5C14.5 23.3284 15.1716 24 16 24Z" fill="#777777"/>
<path d="M17 7.00001H15.5C14.9087 6.99869 14.3229 7.11419 13.7764 7.33987C13.2298 7.56555 12.7332 7.89696 12.3151 8.31509C11.897 8.73322 11.5655 9.22982 11.3399 9.77638C11.1142 10.3229 10.9987 10.9087 11 11.5V12H13V11.5C13 10.837 13.2634 10.2011 13.7322 9.73224C14.2011 9.2634 14.837 9.00001 15.5 9.00001H17C17.6631 9.00001 18.2989 9.2634 18.7678 9.73224C19.2366 10.2011 19.5 10.837 19.5 11.5C19.5 12.1631 19.2366 12.7989 18.7678 13.2678C18.2989 13.7366 17.6631 14 17 14H15V18.5H17V16C18.1935 16 19.3381 15.5259 20.182 14.682C21.0259 13.8381 21.5 12.6935 21.5 11.5C21.5 10.3065 21.0259 9.16194 20.182 8.31803C19.3381 7.47412 18.1935 7.00001 17 7.00001Z" fill="#777777"/>
</svg>
