<svg width="20" height="24" viewBox="0 0 20 24" fill="none" xmlns="http://www.w3.org/2000/svg">
<path d="M19.0002 22.428L14.6572 17.224M14.6572 17.224C15.4001 16.3339 15.9894 15.2771 16.3914 14.114C16.7935 12.951 17.0004 11.7044 17.0004 10.4456C17.0004 9.18668 16.7935 7.94013 16.3914 6.77709C15.9894 5.61404 15.4001 4.55726 14.6572 3.6671C13.9143 2.77694 13.0324 2.07083 12.0618 1.58908C11.0911 1.10733 10.0508 0.859375 9.00021 0.859375C7.9496 0.859375 6.90929 1.10733 5.93866 1.58908C4.96803 2.07083 4.08609 2.77694 3.34321 3.6671C1.84288 5.46486 1 7.90315 1 10.4456C1 12.988 1.84288 15.4263 3.34321 17.224C4.84354 19.0218 6.87842 20.0317 9.00021 20.0317C11.122 20.0317 13.1569 19.0218 14.6572 17.224Z" stroke="white" stroke-width="1.5" stroke-linecap="round" stroke-linejoin="round"/>
</svg>
