<svg width="32" height="31" viewBox="0 0 32 31" fill="none" xmlns="http://www.w3.org/2000/svg">
<mask id="mask0_8_157" style="mask-type:luminance" maskUnits="userSpaceOnUse" x="2" y="1" width="28" height="28">
<path d="M12 3H5.33333C4.97971 3 4.64057 3.14048 4.39052 3.39052C4.14048 3.64057 4 3.97971 4 4.33333V11C4 11.3536 4.14048 11.6928 4.39052 11.9428C4.64057 12.1929 4.97971 12.3333 5.33333 12.3333H12C12.3536 12.3333 12.6928 12.1929 12.9428 11.9428C13.1929 11.6928 13.3333 11.3536 13.3333 11V4.33333C13.3333 3.97971 13.1929 3.64057 12.9428 3.39052C12.6928 3.14048 12.3536 3 12 3ZM12 17.6667H5.33333C4.97971 17.6667 4.64057 17.8071 4.39052 18.0572C4.14048 18.3072 4 18.6464 4 19V25.6667C4 26.0203 4.14048 26.3594 4.39052 26.6095C4.64057 26.8595 4.97971 27 5.33333 27H12C12.3536 27 12.6928 26.8595 12.9428 26.6095C13.1929 26.3594 13.3333 26.0203 13.3333 25.6667V19C13.3333 18.6464 13.1929 18.3072 12.9428 18.0572C12.6928 17.8071 12.3536 17.6667 12 17.6667ZM26.6667 3H20C19.6464 3 19.3072 3.14048 19.0572 3.39052C18.8071 3.64057 18.6667 3.97971 18.6667 4.33333V11C18.6667 11.3536 18.8071 11.6928 19.0572 11.9428C19.3072 12.1929 19.6464 12.3333 20 12.3333H26.6667C27.0203 12.3333 27.3594 12.1929 27.6095 11.9428C27.8595 11.6928 28 11.3536 28 11V4.33333C28 3.97971 27.8595 3.64057 27.6095 3.39052C27.3594 3.14048 27.0203 3 26.6667 3ZM26.6667 17.6667H20C19.6464 17.6667 19.3072 17.8071 19.0572 18.0572C18.8071 18.3072 18.6667 18.6464 18.6667 19V25.6667C18.6667 26.0203 18.8071 26.3594 19.0572 26.6095C19.3072 26.8595 19.6464 27 20 27H26.6667C27.0203 27 27.3594 26.8595 27.6095 26.6095C27.8595 26.3594 28 26.0203 28 25.6667V19C28 18.6464 27.8595 18.3072 27.6095 18.0572C27.3594 17.8071 27.0203 17.6667 26.6667 17.6667Z" fill="white" stroke="white" stroke-width="4" stroke-linejoin="round"/>
</mask>
<g mask="url(#mask0_8_157)">
<path d="M0 -1H32V31H0V-1Z" fill="#777777"/>
</g>
</svg>
