<svg width="24" height="25" viewBox="0 0 24 25" fill="none" xmlns="http://www.w3.org/2000/svg">
<path d="M4 20.8333C3.45 20.8333 2.979 20.6292 2.587 20.2208C2.195 19.8125 1.99934 19.3222 2 18.75V6.24999C2 5.67707 2.196 5.18645 2.588 4.77812C2.98 4.36978 3.45067 4.16596 4 4.16666H20C20.55 4.16666 21.021 4.37082 21.413 4.77916C21.805 5.18749 22.0007 5.67777 22 6.24999V18.75C22 19.3229 21.804 19.8135 21.412 20.2219C21.02 20.6302 20.5493 20.834 20 20.8333H4ZM12 13.5417L4 8.33332V18.75H20V8.33332L12 13.5417ZM12 11.4583L20 6.24999H4L12 11.4583ZM4 8.33332V6.24999V18.75V8.33332Z" fill="#777777"/>
</svg>
